<svg xmlns="http://www.w3.org/2000/svg" xmlns:xlink="http://www.w3.org/1999/xlink" viewBox="0 0 500 350" width="500" height="350" preserveAspectRatio="xMidYMid meet" style="width: 100%; height: 100%; transform: translate3d(0px, 0px, 0px); content-visibility: visible;">
  <defs>
    <clipPath id="__lottie_element_2">
      <rect width="500" height="350" x="0" y="0"></rect>
    </clipPath>
  </defs>
  <g clip-path="url(#__lottie_element_2)">
    <g transform="matrix(0.5,0,0,0.5,256.3970031738281,225.50999450683594)" opacity="1" style="display: block;">
      <g opacity="1" transform="matrix(1,0,0,1,0,0)">
        <path fill="rgb(255,61,117)" fill-opacity="1" d=" M0,-83.3740005493164 C-34.0099983215332,-32.970001220703125 -49.861000061035156,21.881999969482422 0,83.3740005493164 C0,83.3740005493164 0,83.3740005493164 0,83.3740005493164 C0,83.3740005493164 0,83.3740005493164 0,83.3740005493164 C49.861000061035156,21.881999969482422 34.0099983215332,-32.970001220703125 0,-83.3740005493164z"></path>
      </g>
    </g>
    <g transform="matrix(0.5,0,0,0.5,256.1929931640625,118.88999938964844)" opacity="1" style="display: block;">
      <g opacity="1" transform="matrix(1,0,0,1,0,0)">
        <path fill="rgb(255,61,117)" fill-opacity="1" d=" M-43.39799880981445,57.816001892089844 C-28.597000122070312,74.84100341796875 -13.321999549865723,92.41600036621094 0.18799999356269836,110.67900085449219 C0.18799999356269836,110.67900085449219 0.4090000092983246,110.35299682617188 0.4090000092983246,110.35299682617188 C0.4090000092983246,110.35299682617188 0.6290000081062317,110.67900085449219 0.6290000081062317,110.67900085449219 C14.138999938964844,92.41600036621094 29.413999557495117,74.84200286865234 44.215999603271484,57.816001892089844 C52.400001525878906,48.402000427246094 60.48500061035156,39.10100173950195 68.03299713134766,29.94300079345703 C49.45000076293945,-17.972999572753906 7.459000110626221,-47.290000915527344 -0.1940000057220459,-110.67900085449219 C-7.794000148773193,-47.72999954223633 -49.25899887084961,-18.381000518798828 -68.03299713134766,28.948999404907227 C-60.25199890136719,38.42900085449219 -51.87900161743164,48.06100082397461 -43.39799880981445,57.816001892089844z"></path>
      </g>
    </g>
   
 
 
  
  </g>
</svg>